<svg width="800" height="500" viewBox="0 0 800 500" fill="none" xmlns="http://www.w3.org/2000/svg">
  <!-- Background -->
  <rect x="0" y="0" width="800" height="500" fill="#f8f9fa"/>

  <!-- Card 1: MRR -->
  <g class="kpi-card" transform="translate(40, 50)">
    <rect x="0" y="0" width="220" height="120" rx="10" fill="#ffffff" stroke="#e0e0e0" stroke-width="1"/>
    <!-- Icon: Money (Material Design inspired) -->
    <svg x="90" y="15" width="40" height="40" viewBox="0 0 24 24" fill="#28a745">
      <path d="M12 2C6.48 2 2 6.48 2 12s4.48 10 10 10 10-4.48 10-10S17.52 2 12 2zm0 15c-2.76 0-5-2.24-5-5h2c0 1.66 1.34 3 3 3s3-1.34 3-3c0-1.66-1.34-3-3-3V7c2.76 0 5 2.24 5 5s-2.24 5-5 5zM11 6h2v12h-2z"/>
    </svg>